<mxfile host="app.diagrams.net" modified="2022-03-09T08:54:51.451Z" agent="5.0 (Windows NT 10.0; Win64; x64) AppleWebKit/537.36 (KHTML, like Gecko) Chrome/98.0.4758.82 Safari/537.36" etag="FxUEaJOsO3xXZUeyawfx" version="17.0.0" type="github">
  <diagram id="oHVaTDLqjhao3XC7evdt" name="第 1 页">
    <mxGraphModel dx="782" dy="380" grid="1" gridSize="10" guides="1" tooltips="1" connect="1" arrows="1" fold="1" page="1" pageScale="1" pageWidth="827" pageHeight="1169" math="0" shadow="0">
      <root>
        <mxCell id="0" />
        <mxCell id="1" parent="0" />
        <mxCell id="lET7Rk2F43s4WKbQK2RQ-3" style="edgeStyle=orthogonalEdgeStyle;rounded=0;orthogonalLoop=1;jettySize=auto;html=1;exitX=1;exitY=0.5;exitDx=0;exitDy=0;entryX=0;entryY=0.5;entryDx=0;entryDy=0;" parent="1" source="lET7Rk2F43s4WKbQK2RQ-2" target="lET7Rk2F43s4WKbQK2RQ-5" edge="1">
          <mxGeometry relative="1" as="geometry">
            <mxPoint x="380" y="234.6470588235294" as="targetPoint" />
          </mxGeometry>
        </mxCell>
        <mxCell id="lET7Rk2F43s4WKbQK2RQ-2" value="全局哈希表1" style="rounded=1;whiteSpace=wrap;html=1;strokeWidth=2;fillWeight=4;hachureGap=8;hachureAngle=45;fillColor=#d5e8d4;sketch=1;strokeColor=#82b366;" parent="1" vertex="1">
          <mxGeometry x="120" y="210" width="190" height="50" as="geometry" />
        </mxCell>
        <mxCell id="lET7Rk2F43s4WKbQK2RQ-58" value="" style="edgeStyle=orthogonalEdgeStyle;rounded=0;orthogonalLoop=1;jettySize=auto;html=1;" parent="1" target="lET7Rk2F43s4WKbQK2RQ-51" edge="1">
          <mxGeometry relative="1" as="geometry">
            <mxPoint x="417" y="255" as="sourcePoint" />
            <Array as="points">
              <mxPoint x="417" y="270" />
              <mxPoint x="417" y="270" />
            </Array>
          </mxGeometry>
        </mxCell>
        <mxCell id="lET7Rk2F43s4WKbQK2RQ-4" value="" style="shape=table;html=1;whiteSpace=wrap;startSize=0;container=1;collapsible=0;childLayout=tableLayout;sketch=1;fillColor=#fff2cc;strokeColor=#d6b656;rounded=1;" parent="1" vertex="1">
          <mxGeometry x="384" y="215" width="330" height="40" as="geometry" />
        </mxCell>
        <mxCell id="lET7Rk2F43s4WKbQK2RQ-5" value="" style="shape=tableRow;horizontal=0;startSize=0;swimlaneHead=0;swimlaneBody=0;top=0;left=0;bottom=0;right=0;collapsible=0;dropTarget=0;fillColor=none;points=[[0,0.5],[1,0.5]];portConstraint=eastwest;" parent="lET7Rk2F43s4WKbQK2RQ-4" vertex="1">
          <mxGeometry width="330" height="40" as="geometry" />
        </mxCell>
        <mxCell id="lET7Rk2F43s4WKbQK2RQ-6" value="1" style="shape=partialRectangle;html=1;whiteSpace=wrap;connectable=0;fillColor=none;top=0;left=0;bottom=0;right=0;overflow=hidden;" parent="lET7Rk2F43s4WKbQK2RQ-5" vertex="1">
          <mxGeometry width="66" height="40" as="geometry">
            <mxRectangle width="66" height="40" as="alternateBounds" />
          </mxGeometry>
        </mxCell>
        <mxCell id="lET7Rk2F43s4WKbQK2RQ-18" value="2" style="shape=partialRectangle;html=1;whiteSpace=wrap;connectable=0;fillColor=none;top=0;left=0;bottom=0;right=0;overflow=hidden;" parent="lET7Rk2F43s4WKbQK2RQ-5" vertex="1">
          <mxGeometry x="66" width="66" height="40" as="geometry">
            <mxRectangle width="66" height="40" as="alternateBounds" />
          </mxGeometry>
        </mxCell>
        <mxCell id="lET7Rk2F43s4WKbQK2RQ-19" value="3" style="shape=partialRectangle;html=1;whiteSpace=wrap;connectable=0;fillColor=none;top=0;left=0;bottom=0;right=0;overflow=hidden;" parent="lET7Rk2F43s4WKbQK2RQ-5" vertex="1">
          <mxGeometry x="132" width="66" height="40" as="geometry">
            <mxRectangle width="66" height="40" as="alternateBounds" />
          </mxGeometry>
        </mxCell>
        <mxCell id="lET7Rk2F43s4WKbQK2RQ-20" value="4" style="shape=partialRectangle;html=1;whiteSpace=wrap;connectable=0;fillColor=none;top=0;left=0;bottom=0;right=0;overflow=hidden;" parent="lET7Rk2F43s4WKbQK2RQ-5" vertex="1">
          <mxGeometry x="198" width="68" height="40" as="geometry">
            <mxRectangle width="68" height="40" as="alternateBounds" />
          </mxGeometry>
        </mxCell>
        <mxCell id="lET7Rk2F43s4WKbQK2RQ-21" value="5" style="shape=partialRectangle;html=1;whiteSpace=wrap;connectable=0;fillColor=none;top=0;left=0;bottom=0;right=0;overflow=hidden;" parent="lET7Rk2F43s4WKbQK2RQ-5" vertex="1">
          <mxGeometry x="266" width="64" height="40" as="geometry">
            <mxRectangle width="64" height="40" as="alternateBounds" />
          </mxGeometry>
        </mxCell>
        <mxCell id="lET7Rk2F43s4WKbQK2RQ-40" style="edgeStyle=orthogonalEdgeStyle;rounded=0;orthogonalLoop=1;jettySize=auto;html=1;exitX=1;exitY=0.5;exitDx=0;exitDy=0;entryX=0;entryY=0.5;entryDx=0;entryDy=0;" parent="1" source="lET7Rk2F43s4WKbQK2RQ-41" target="lET7Rk2F43s4WKbQK2RQ-43" edge="1">
          <mxGeometry relative="1" as="geometry">
            <mxPoint x="380" y="533.6470588235294" as="targetPoint" />
          </mxGeometry>
        </mxCell>
        <mxCell id="lET7Rk2F43s4WKbQK2RQ-41" value="全局哈希表1" style="rounded=1;whiteSpace=wrap;html=1;strokeWidth=2;fillWeight=4;hachureGap=8;hachureAngle=45;fillColor=#d5e8d4;sketch=1;strokeColor=#82b366;" parent="1" vertex="1">
          <mxGeometry x="120" y="509" width="190" height="50" as="geometry" />
        </mxCell>
        <mxCell id="lET7Rk2F43s4WKbQK2RQ-42" value="" style="shape=table;html=1;whiteSpace=wrap;startSize=0;container=1;collapsible=0;childLayout=tableLayout;sketch=1;fillColor=#fff2cc;strokeColor=#d6b656;rounded=1;" parent="1" vertex="1">
          <mxGeometry x="384" y="514" width="330" height="40" as="geometry" />
        </mxCell>
        <mxCell id="lET7Rk2F43s4WKbQK2RQ-43" value="" style="shape=tableRow;horizontal=0;startSize=0;swimlaneHead=0;swimlaneBody=0;top=0;left=0;bottom=0;right=0;collapsible=0;dropTarget=0;fillColor=none;points=[[0,0.5],[1,0.5]];portConstraint=eastwest;" parent="lET7Rk2F43s4WKbQK2RQ-42" vertex="1">
          <mxGeometry width="330" height="40" as="geometry" />
        </mxCell>
        <mxCell id="lET7Rk2F43s4WKbQK2RQ-44" value="1" style="shape=partialRectangle;html=1;whiteSpace=wrap;connectable=0;fillColor=none;top=0;left=0;bottom=0;right=0;overflow=hidden;" parent="lET7Rk2F43s4WKbQK2RQ-43" vertex="1">
          <mxGeometry width="66" height="40" as="geometry">
            <mxRectangle width="66" height="40" as="alternateBounds" />
          </mxGeometry>
        </mxCell>
        <mxCell id="lET7Rk2F43s4WKbQK2RQ-45" value="2" style="shape=partialRectangle;html=1;whiteSpace=wrap;connectable=0;fillColor=none;top=0;left=0;bottom=0;right=0;overflow=hidden;" parent="lET7Rk2F43s4WKbQK2RQ-43" vertex="1">
          <mxGeometry x="66" width="66" height="40" as="geometry">
            <mxRectangle width="66" height="40" as="alternateBounds" />
          </mxGeometry>
        </mxCell>
        <mxCell id="lET7Rk2F43s4WKbQK2RQ-46" value="3" style="shape=partialRectangle;html=1;whiteSpace=wrap;connectable=0;fillColor=none;top=0;left=0;bottom=0;right=0;overflow=hidden;" parent="lET7Rk2F43s4WKbQK2RQ-43" vertex="1">
          <mxGeometry x="132" width="66" height="40" as="geometry">
            <mxRectangle width="66" height="40" as="alternateBounds" />
          </mxGeometry>
        </mxCell>
        <mxCell id="lET7Rk2F43s4WKbQK2RQ-47" value="4" style="shape=partialRectangle;html=1;whiteSpace=wrap;connectable=0;fillColor=none;top=0;left=0;bottom=0;right=0;overflow=hidden;" parent="lET7Rk2F43s4WKbQK2RQ-43" vertex="1">
          <mxGeometry x="198" width="68" height="40" as="geometry">
            <mxRectangle width="68" height="40" as="alternateBounds" />
          </mxGeometry>
        </mxCell>
        <mxCell id="lET7Rk2F43s4WKbQK2RQ-48" value="5" style="shape=partialRectangle;html=1;whiteSpace=wrap;connectable=0;fillColor=none;top=0;left=0;bottom=0;right=0;overflow=hidden;" parent="lET7Rk2F43s4WKbQK2RQ-43" vertex="1">
          <mxGeometry x="266" width="64" height="40" as="geometry">
            <mxRectangle width="64" height="40" as="alternateBounds" />
          </mxGeometry>
        </mxCell>
        <mxCell id="lET7Rk2F43s4WKbQK2RQ-51" value="" style="shape=table;html=1;whiteSpace=wrap;startSize=0;container=1;collapsible=0;childLayout=tableLayout;sketch=1;fillColor=#fff2cc;strokeColor=#d6b656;rounded=1;" parent="1" vertex="1">
          <mxGeometry x="381" y="335" width="66" height="120" as="geometry" />
        </mxCell>
        <mxCell id="lET7Rk2F43s4WKbQK2RQ-52" value="" style="shape=tableRow;horizontal=0;startSize=0;swimlaneHead=0;swimlaneBody=0;top=0;left=0;bottom=0;right=0;collapsible=0;dropTarget=0;fillColor=none;points=[[0,0.5],[1,0.5]];portConstraint=eastwest;" parent="lET7Rk2F43s4WKbQK2RQ-51" vertex="1">
          <mxGeometry width="66" height="40" as="geometry" />
        </mxCell>
        <mxCell id="lET7Rk2F43s4WKbQK2RQ-53" value="entry1" style="shape=partialRectangle;html=1;whiteSpace=wrap;connectable=0;fillColor=none;top=0;left=0;bottom=0;right=0;overflow=hidden;" parent="lET7Rk2F43s4WKbQK2RQ-52" vertex="1">
          <mxGeometry width="66" height="40" as="geometry">
            <mxRectangle width="66" height="40" as="alternateBounds" />
          </mxGeometry>
        </mxCell>
        <mxCell id="lET7Rk2F43s4WKbQK2RQ-59" style="shape=tableRow;horizontal=0;startSize=0;swimlaneHead=0;swimlaneBody=0;top=0;left=0;bottom=0;right=0;collapsible=0;dropTarget=0;fillColor=none;points=[[0,0.5],[1,0.5]];portConstraint=eastwest;" parent="lET7Rk2F43s4WKbQK2RQ-51" vertex="1">
          <mxGeometry y="40" width="66" height="40" as="geometry" />
        </mxCell>
        <mxCell id="lET7Rk2F43s4WKbQK2RQ-60" value="&lt;span&gt;entry2&lt;/span&gt;" style="shape=partialRectangle;html=1;whiteSpace=wrap;connectable=0;fillColor=none;top=0;left=0;bottom=0;right=0;overflow=hidden;" parent="lET7Rk2F43s4WKbQK2RQ-59" vertex="1">
          <mxGeometry width="66" height="40" as="geometry">
            <mxRectangle width="66" height="40" as="alternateBounds" />
          </mxGeometry>
        </mxCell>
        <mxCell id="lET7Rk2F43s4WKbQK2RQ-61" style="shape=tableRow;horizontal=0;startSize=0;swimlaneHead=0;swimlaneBody=0;top=0;left=0;bottom=0;right=0;collapsible=0;dropTarget=0;fillColor=none;points=[[0,0.5],[1,0.5]];portConstraint=eastwest;" parent="lET7Rk2F43s4WKbQK2RQ-51" vertex="1">
          <mxGeometry y="80" width="66" height="40" as="geometry" />
        </mxCell>
        <mxCell id="lET7Rk2F43s4WKbQK2RQ-62" value="&lt;span&gt;entry3&lt;/span&gt;" style="shape=partialRectangle;html=1;whiteSpace=wrap;connectable=0;fillColor=none;top=0;left=0;bottom=0;right=0;overflow=hidden;" parent="lET7Rk2F43s4WKbQK2RQ-61" vertex="1">
          <mxGeometry width="66" height="40" as="geometry">
            <mxRectangle width="66" height="40" as="alternateBounds" />
          </mxGeometry>
        </mxCell>
        <mxCell id="lET7Rk2F43s4WKbQK2RQ-76" value="" style="rounded=0;orthogonalLoop=1;jettySize=auto;html=1;exitX=0.299;exitY=0.996;exitDx=0;exitDy=0;exitPerimeter=0;" parent="1" source="lET7Rk2F43s4WKbQK2RQ-5" target="lET7Rk2F43s4WKbQK2RQ-77" edge="1">
          <mxGeometry relative="1" as="geometry">
            <mxPoint x="450" y="280" as="sourcePoint" />
          </mxGeometry>
        </mxCell>
        <mxCell id="lET7Rk2F43s4WKbQK2RQ-77" value="" style="shape=table;html=1;whiteSpace=wrap;startSize=0;container=1;collapsible=0;childLayout=tableLayout;sketch=1;fillColor=#fff2cc;strokeColor=#d6b656;rounded=1;" parent="1" vertex="1">
          <mxGeometry x="486" y="335" width="66" height="120" as="geometry" />
        </mxCell>
        <mxCell id="lET7Rk2F43s4WKbQK2RQ-78" value="" style="shape=tableRow;horizontal=0;startSize=0;swimlaneHead=0;swimlaneBody=0;top=0;left=0;bottom=0;right=0;collapsible=0;dropTarget=0;fillColor=none;points=[[0,0.5],[1,0.5]];portConstraint=eastwest;" parent="lET7Rk2F43s4WKbQK2RQ-77" vertex="1">
          <mxGeometry width="66" height="40" as="geometry" />
        </mxCell>
        <mxCell id="lET7Rk2F43s4WKbQK2RQ-79" value="entry4" style="shape=partialRectangle;html=1;whiteSpace=wrap;connectable=0;fillColor=none;top=0;left=0;bottom=0;right=0;overflow=hidden;" parent="lET7Rk2F43s4WKbQK2RQ-78" vertex="1">
          <mxGeometry width="66" height="40" as="geometry">
            <mxRectangle width="66" height="40" as="alternateBounds" />
          </mxGeometry>
        </mxCell>
        <mxCell id="lET7Rk2F43s4WKbQK2RQ-80" style="shape=tableRow;horizontal=0;startSize=0;swimlaneHead=0;swimlaneBody=0;top=0;left=0;bottom=0;right=0;collapsible=0;dropTarget=0;fillColor=none;points=[[0,0.5],[1,0.5]];portConstraint=eastwest;" parent="lET7Rk2F43s4WKbQK2RQ-77" vertex="1">
          <mxGeometry y="40" width="66" height="40" as="geometry" />
        </mxCell>
        <mxCell id="lET7Rk2F43s4WKbQK2RQ-81" value="&lt;span&gt;entry5&lt;/span&gt;" style="shape=partialRectangle;html=1;whiteSpace=wrap;connectable=0;fillColor=none;top=0;left=0;bottom=0;right=0;overflow=hidden;" parent="lET7Rk2F43s4WKbQK2RQ-80" vertex="1">
          <mxGeometry width="66" height="40" as="geometry">
            <mxRectangle width="66" height="40" as="alternateBounds" />
          </mxGeometry>
        </mxCell>
        <mxCell id="lET7Rk2F43s4WKbQK2RQ-82" style="shape=tableRow;horizontal=0;startSize=0;swimlaneHead=0;swimlaneBody=0;top=0;left=0;bottom=0;right=0;collapsible=0;dropTarget=0;fillColor=none;points=[[0,0.5],[1,0.5]];portConstraint=eastwest;" parent="lET7Rk2F43s4WKbQK2RQ-77" vertex="1">
          <mxGeometry y="80" width="66" height="40" as="geometry" />
        </mxCell>
        <mxCell id="lET7Rk2F43s4WKbQK2RQ-83" value="&lt;span&gt;entry6&lt;/span&gt;" style="shape=partialRectangle;html=1;whiteSpace=wrap;connectable=0;fillColor=none;top=0;left=0;bottom=0;right=0;overflow=hidden;" parent="lET7Rk2F43s4WKbQK2RQ-82" vertex="1">
          <mxGeometry width="66" height="40" as="geometry">
            <mxRectangle width="66" height="40" as="alternateBounds" />
          </mxGeometry>
        </mxCell>
        <mxCell id="lET7Rk2F43s4WKbQK2RQ-84" value="第一次请求后" style="text;html=1;strokeColor=none;fillColor=none;align=center;verticalAlign=middle;whiteSpace=wrap;rounded=0;sketch=0;" parent="1" vertex="1">
          <mxGeometry y="702" width="80" height="30" as="geometry" />
        </mxCell>
        <mxCell id="lET7Rk2F43s4WKbQK2RQ-85" value="" style="rounded=0;whiteSpace=wrap;html=1;sketch=0;strokeColor=default;fillColor=none;dashed=1;" parent="1" vertex="1">
          <mxGeometry x="95" y="477" width="705" height="480" as="geometry" />
        </mxCell>
        <mxCell id="lET7Rk2F43s4WKbQK2RQ-94" value="" style="rounded=0;orthogonalLoop=1;jettySize=auto;html=1;exitX=0.299;exitY=0.996;exitDx=0;exitDy=0;exitPerimeter=0;" parent="1" edge="1">
          <mxGeometry relative="1" as="geometry">
            <mxPoint x="482.66999999999985" y="554" as="sourcePoint" />
            <mxPoint x="483" y="590" as="targetPoint" />
          </mxGeometry>
        </mxCell>
        <mxCell id="lET7Rk2F43s4WKbQK2RQ-95" value="" style="shape=table;html=1;whiteSpace=wrap;startSize=0;container=1;collapsible=0;childLayout=tableLayout;sketch=1;fillColor=#fff2cc;strokeColor=#d6b656;rounded=1;" parent="1" vertex="1">
          <mxGeometry x="447" y="590.0000000000001" width="66" height="120" as="geometry" />
        </mxCell>
        <mxCell id="lET7Rk2F43s4WKbQK2RQ-96" value="" style="shape=tableRow;horizontal=0;startSize=0;swimlaneHead=0;swimlaneBody=0;top=0;left=0;bottom=0;right=0;collapsible=0;dropTarget=0;fillColor=none;points=[[0,0.5],[1,0.5]];portConstraint=eastwest;" parent="lET7Rk2F43s4WKbQK2RQ-95" vertex="1">
          <mxGeometry width="66" height="40" as="geometry" />
        </mxCell>
        <mxCell id="lET7Rk2F43s4WKbQK2RQ-97" value="entry4" style="shape=partialRectangle;html=1;whiteSpace=wrap;connectable=0;fillColor=none;top=0;left=0;bottom=0;right=0;overflow=hidden;" parent="lET7Rk2F43s4WKbQK2RQ-96" vertex="1">
          <mxGeometry width="66" height="40" as="geometry">
            <mxRectangle width="66" height="40" as="alternateBounds" />
          </mxGeometry>
        </mxCell>
        <mxCell id="lET7Rk2F43s4WKbQK2RQ-98" style="shape=tableRow;horizontal=0;startSize=0;swimlaneHead=0;swimlaneBody=0;top=0;left=0;bottom=0;right=0;collapsible=0;dropTarget=0;fillColor=none;points=[[0,0.5],[1,0.5]];portConstraint=eastwest;" parent="lET7Rk2F43s4WKbQK2RQ-95" vertex="1">
          <mxGeometry y="40" width="66" height="40" as="geometry" />
        </mxCell>
        <mxCell id="lET7Rk2F43s4WKbQK2RQ-99" value="&lt;span&gt;entry5&lt;/span&gt;" style="shape=partialRectangle;html=1;whiteSpace=wrap;connectable=0;fillColor=none;top=0;left=0;bottom=0;right=0;overflow=hidden;" parent="lET7Rk2F43s4WKbQK2RQ-98" vertex="1">
          <mxGeometry width="66" height="40" as="geometry">
            <mxRectangle width="66" height="40" as="alternateBounds" />
          </mxGeometry>
        </mxCell>
        <mxCell id="lET7Rk2F43s4WKbQK2RQ-100" style="shape=tableRow;horizontal=0;startSize=0;swimlaneHead=0;swimlaneBody=0;top=0;left=0;bottom=0;right=0;collapsible=0;dropTarget=0;fillColor=none;points=[[0,0.5],[1,0.5]];portConstraint=eastwest;" parent="lET7Rk2F43s4WKbQK2RQ-95" vertex="1">
          <mxGeometry y="80" width="66" height="40" as="geometry" />
        </mxCell>
        <mxCell id="lET7Rk2F43s4WKbQK2RQ-101" value="&lt;span&gt;entry6&lt;/span&gt;" style="shape=partialRectangle;html=1;whiteSpace=wrap;connectable=0;fillColor=none;top=0;left=0;bottom=0;right=0;overflow=hidden;" parent="lET7Rk2F43s4WKbQK2RQ-100" vertex="1">
          <mxGeometry width="66" height="40" as="geometry">
            <mxRectangle width="66" height="40" as="alternateBounds" />
          </mxGeometry>
        </mxCell>
        <mxCell id="lET7Rk2F43s4WKbQK2RQ-127" style="edgeStyle=orthogonalEdgeStyle;rounded=0;orthogonalLoop=1;jettySize=auto;html=1;exitX=1;exitY=0.5;exitDx=0;exitDy=0;entryX=0;entryY=0.5;entryDx=0;entryDy=0;" parent="1" source="lET7Rk2F43s4WKbQK2RQ-128" target="lET7Rk2F43s4WKbQK2RQ-131" edge="1">
          <mxGeometry relative="1" as="geometry">
            <mxPoint x="393" y="739.6470588235294" as="targetPoint" />
          </mxGeometry>
        </mxCell>
        <mxCell id="lET7Rk2F43s4WKbQK2RQ-128" value="全局哈希表1" style="rounded=1;whiteSpace=wrap;html=1;strokeWidth=2;fillWeight=4;hachureGap=8;hachureAngle=45;fillColor=#d5e8d4;sketch=1;strokeColor=#82b366;" parent="1" vertex="1">
          <mxGeometry x="120" y="715" width="190" height="50" as="geometry" />
        </mxCell>
        <mxCell id="lET7Rk2F43s4WKbQK2RQ-129" value="" style="edgeStyle=orthogonalEdgeStyle;rounded=0;orthogonalLoop=1;jettySize=auto;html=1;" parent="1" target="lET7Rk2F43s4WKbQK2RQ-137" edge="1">
          <mxGeometry relative="1" as="geometry">
            <mxPoint x="430" y="760" as="sourcePoint" />
            <Array as="points">
              <mxPoint x="430" y="775" />
              <mxPoint x="430" y="775" />
            </Array>
          </mxGeometry>
        </mxCell>
        <mxCell id="lET7Rk2F43s4WKbQK2RQ-130" value="" style="shape=table;html=1;whiteSpace=wrap;startSize=0;container=1;collapsible=0;childLayout=tableLayout;sketch=1;fillColor=#fff2cc;strokeColor=#d6b656;rounded=1;" parent="1" vertex="1">
          <mxGeometry x="381" y="720" width="400" height="40" as="geometry" />
        </mxCell>
        <mxCell id="lET7Rk2F43s4WKbQK2RQ-131" value="" style="shape=tableRow;horizontal=0;startSize=0;swimlaneHead=0;swimlaneBody=0;top=0;left=0;bottom=0;right=0;collapsible=0;dropTarget=0;fillColor=none;points=[[0,0.5],[1,0.5]];portConstraint=eastwest;" parent="lET7Rk2F43s4WKbQK2RQ-130" vertex="1">
          <mxGeometry width="400" height="40" as="geometry" />
        </mxCell>
        <mxCell id="lET7Rk2F43s4WKbQK2RQ-132" value="1" style="shape=partialRectangle;html=1;whiteSpace=wrap;connectable=0;fillColor=none;top=0;left=0;bottom=0;right=0;overflow=hidden;" parent="lET7Rk2F43s4WKbQK2RQ-131" vertex="1">
          <mxGeometry width="40" height="40" as="geometry">
            <mxRectangle width="40" height="40" as="alternateBounds" />
          </mxGeometry>
        </mxCell>
        <mxCell id="lET7Rk2F43s4WKbQK2RQ-133" value="2" style="shape=partialRectangle;html=1;whiteSpace=wrap;connectable=0;fillColor=none;top=0;left=0;bottom=0;right=0;overflow=hidden;" parent="lET7Rk2F43s4WKbQK2RQ-131" vertex="1">
          <mxGeometry x="40" width="40" height="40" as="geometry">
            <mxRectangle width="40" height="40" as="alternateBounds" />
          </mxGeometry>
        </mxCell>
        <mxCell id="lET7Rk2F43s4WKbQK2RQ-134" value="3" style="shape=partialRectangle;html=1;whiteSpace=wrap;connectable=0;fillColor=none;top=0;left=0;bottom=0;right=0;overflow=hidden;" parent="lET7Rk2F43s4WKbQK2RQ-131" vertex="1">
          <mxGeometry x="80" width="40" height="40" as="geometry">
            <mxRectangle width="40" height="40" as="alternateBounds" />
          </mxGeometry>
        </mxCell>
        <mxCell id="lET7Rk2F43s4WKbQK2RQ-135" value="4" style="shape=partialRectangle;html=1;whiteSpace=wrap;connectable=0;fillColor=none;top=0;left=0;bottom=0;right=0;overflow=hidden;" parent="lET7Rk2F43s4WKbQK2RQ-131" vertex="1">
          <mxGeometry x="120" width="40" height="40" as="geometry">
            <mxRectangle width="40" height="40" as="alternateBounds" />
          </mxGeometry>
        </mxCell>
        <mxCell id="lET7Rk2F43s4WKbQK2RQ-136" value="5" style="shape=partialRectangle;html=1;whiteSpace=wrap;connectable=0;fillColor=none;top=0;left=0;bottom=0;right=0;overflow=hidden;" parent="lET7Rk2F43s4WKbQK2RQ-131" vertex="1">
          <mxGeometry x="160" width="40" height="40" as="geometry">
            <mxRectangle width="40" height="40" as="alternateBounds" />
          </mxGeometry>
        </mxCell>
        <mxCell id="lET7Rk2F43s4WKbQK2RQ-152" value="6" style="shape=partialRectangle;html=1;whiteSpace=wrap;connectable=0;fillColor=none;top=0;left=0;bottom=0;right=0;overflow=hidden;" parent="lET7Rk2F43s4WKbQK2RQ-131" vertex="1">
          <mxGeometry x="200" width="40" height="40" as="geometry">
            <mxRectangle width="40" height="40" as="alternateBounds" />
          </mxGeometry>
        </mxCell>
        <mxCell id="lET7Rk2F43s4WKbQK2RQ-153" value="7" style="shape=partialRectangle;html=1;whiteSpace=wrap;connectable=0;fillColor=none;top=0;left=0;bottom=0;right=0;overflow=hidden;" parent="lET7Rk2F43s4WKbQK2RQ-131" vertex="1">
          <mxGeometry x="240" width="40" height="40" as="geometry">
            <mxRectangle width="40" height="40" as="alternateBounds" />
          </mxGeometry>
        </mxCell>
        <mxCell id="lET7Rk2F43s4WKbQK2RQ-154" value="8" style="shape=partialRectangle;html=1;whiteSpace=wrap;connectable=0;fillColor=none;top=0;left=0;bottom=0;right=0;overflow=hidden;" parent="lET7Rk2F43s4WKbQK2RQ-131" vertex="1">
          <mxGeometry x="280" width="40" height="40" as="geometry">
            <mxRectangle width="40" height="40" as="alternateBounds" />
          </mxGeometry>
        </mxCell>
        <mxCell id="lET7Rk2F43s4WKbQK2RQ-155" value="9" style="shape=partialRectangle;html=1;whiteSpace=wrap;connectable=0;fillColor=none;top=0;left=0;bottom=0;right=0;overflow=hidden;" parent="lET7Rk2F43s4WKbQK2RQ-131" vertex="1">
          <mxGeometry x="320" width="40" height="40" as="geometry">
            <mxRectangle width="40" height="40" as="alternateBounds" />
          </mxGeometry>
        </mxCell>
        <mxCell id="lET7Rk2F43s4WKbQK2RQ-156" value="10" style="shape=partialRectangle;html=1;whiteSpace=wrap;connectable=0;fillColor=none;top=0;left=0;bottom=0;right=0;overflow=hidden;" parent="lET7Rk2F43s4WKbQK2RQ-131" vertex="1">
          <mxGeometry x="360" width="40" height="40" as="geometry">
            <mxRectangle width="40" height="40" as="alternateBounds" />
          </mxGeometry>
        </mxCell>
        <mxCell id="lET7Rk2F43s4WKbQK2RQ-137" value="" style="shape=table;html=1;whiteSpace=wrap;startSize=0;container=1;collapsible=0;childLayout=tableLayout;sketch=1;fillColor=#fff2cc;strokeColor=#d6b656;rounded=1;" parent="1" vertex="1">
          <mxGeometry x="394" y="840" width="66" height="80" as="geometry" />
        </mxCell>
        <mxCell id="lET7Rk2F43s4WKbQK2RQ-138" value="" style="shape=tableRow;horizontal=0;startSize=0;swimlaneHead=0;swimlaneBody=0;top=0;left=0;bottom=0;right=0;collapsible=0;dropTarget=0;fillColor=none;points=[[0,0.5],[1,0.5]];portConstraint=eastwest;" parent="lET7Rk2F43s4WKbQK2RQ-137" vertex="1">
          <mxGeometry width="66" height="40" as="geometry" />
        </mxCell>
        <mxCell id="lET7Rk2F43s4WKbQK2RQ-139" value="entry1" style="shape=partialRectangle;html=1;whiteSpace=wrap;connectable=0;fillColor=none;top=0;left=0;bottom=0;right=0;overflow=hidden;" parent="lET7Rk2F43s4WKbQK2RQ-138" vertex="1">
          <mxGeometry width="66" height="40" as="geometry">
            <mxRectangle width="66" height="40" as="alternateBounds" />
          </mxGeometry>
        </mxCell>
        <mxCell id="lET7Rk2F43s4WKbQK2RQ-140" style="shape=tableRow;horizontal=0;startSize=0;swimlaneHead=0;swimlaneBody=0;top=0;left=0;bottom=0;right=0;collapsible=0;dropTarget=0;fillColor=none;points=[[0,0.5],[1,0.5]];portConstraint=eastwest;" parent="lET7Rk2F43s4WKbQK2RQ-137" vertex="1">
          <mxGeometry y="40" width="66" height="40" as="geometry" />
        </mxCell>
        <mxCell id="lET7Rk2F43s4WKbQK2RQ-141" value="&lt;span&gt;entry2&lt;/span&gt;" style="shape=partialRectangle;html=1;whiteSpace=wrap;connectable=0;fillColor=none;top=0;left=0;bottom=0;right=0;overflow=hidden;" parent="lET7Rk2F43s4WKbQK2RQ-140" vertex="1">
          <mxGeometry width="66" height="40" as="geometry">
            <mxRectangle width="66" height="40" as="alternateBounds" />
          </mxGeometry>
        </mxCell>
        <mxCell id="lET7Rk2F43s4WKbQK2RQ-144" value="" style="rounded=0;orthogonalLoop=1;jettySize=auto;html=1;edgeStyle=orthogonalEdgeStyle;exitX=0.463;exitY=0.979;exitDx=0;exitDy=0;exitPerimeter=0;" parent="1" source="lET7Rk2F43s4WKbQK2RQ-131" target="lET7Rk2F43s4WKbQK2RQ-145" edge="1">
          <mxGeometry relative="1" as="geometry">
            <mxPoint x="463" y="785" as="sourcePoint" />
          </mxGeometry>
        </mxCell>
        <mxCell id="lET7Rk2F43s4WKbQK2RQ-145" value="" style="shape=table;html=1;whiteSpace=wrap;startSize=0;container=1;collapsible=0;childLayout=tableLayout;sketch=1;fillColor=#fff2cc;strokeColor=#d6b656;rounded=1;" parent="1" vertex="1">
          <mxGeometry x="516" y="840" width="66" height="40" as="geometry" />
        </mxCell>
        <mxCell id="lET7Rk2F43s4WKbQK2RQ-146" value="" style="shape=tableRow;horizontal=0;startSize=0;swimlaneHead=0;swimlaneBody=0;top=0;left=0;bottom=0;right=0;collapsible=0;dropTarget=0;fillColor=none;points=[[0,0.5],[1,0.5]];portConstraint=eastwest;" parent="lET7Rk2F43s4WKbQK2RQ-145" vertex="1">
          <mxGeometry width="66" height="40" as="geometry" />
        </mxCell>
        <mxCell id="lET7Rk2F43s4WKbQK2RQ-147" value="entry3" style="shape=partialRectangle;html=1;whiteSpace=wrap;connectable=0;fillColor=none;top=0;left=0;bottom=0;right=0;overflow=hidden;" parent="lET7Rk2F43s4WKbQK2RQ-146" vertex="1">
          <mxGeometry width="66" height="40" as="geometry">
            <mxRectangle width="66" height="40" as="alternateBounds" />
          </mxGeometry>
        </mxCell>
      </root>
    </mxGraphModel>
  </diagram>
</mxfile>
